<svg width="30" height="30" viewBox="0 0 30 30" fill="none" xmlns="http://www.w3.org/2000/svg">
<path d="M23.5375 11.8C23.4228 11.6304 23.2683 11.4915 23.0874 11.3956C22.9064 11.2997 22.7048 11.2497 22.5 11.25H18.75V8.75H21.5C21.8315 8.75 22.1495 8.6183 22.3839 8.38388C22.6183 8.14946 22.75 7.83152 22.75 7.5V2.5C22.75 2.16848 22.6183 1.85054 22.3839 1.61612C22.1495 1.3817 21.8315 1.25 21.5 1.25H17.5C15.5772 1.25 13.7331 2.01384 12.3735 3.37348C11.0138 4.73311 10.25 6.57718 10.25 8.5V11.25H7.5C7.16848 11.25 6.85054 11.3817 6.61612 11.6161C6.3817 11.8505 6.25 12.1685 6.25 12.5V17.5C6.25 17.8315 6.3817 18.1495 6.61612 18.3839C6.85054 18.6183 7.16848 18.75 7.5 18.75H10.25V27.5C10.25 27.8315 10.3817 28.1495 10.6161 28.3839C10.8505 28.6183 11.1685 28.75 11.5 28.75H17.5C17.8315 28.75 18.1495 28.6183 18.3839 28.3839C18.6183 28.1495 18.75 27.8315 18.75 27.5V18.75H20.5C20.7503 18.7502 20.995 18.6753 21.2023 18.5349C21.4095 18.3945 21.5699 18.1951 21.6625 17.9625L23.6625 12.9625C23.738 12.7732 23.7661 12.5683 23.7443 12.3657C23.7225 12.1631 23.6515 11.9689 23.5375 11.8ZM19.65 16.25H17.5C17.1685 16.25 16.8505 16.3817 16.6161 16.6161C16.3817 16.8505 16.25 17.1685 16.25 17.5V26.25H12.75V17.5C12.75 17.1685 12.6183 16.8505 12.3839 16.6161C12.1495 16.3817 11.8315 16.25 11.5 16.25H8.75V13.75H11.5C11.8315 13.75 12.1495 13.6183 12.3839 13.3839C12.6183 13.1495 12.75 12.8315 12.75 12.5V8.5C12.7533 7.24124 13.2548 6.03497 14.1449 5.14489C15.035 4.2548 16.2412 3.7533 17.5 3.75H20.25V6.25H19.25C18.8268 6.18834 18.3954 6.21422 17.9826 6.32602C17.5697 6.43783 17.1843 6.63319 16.85 6.9C16.6471 7.11237 16.4894 7.36362 16.3863 7.63861C16.2832 7.91359 16.2368 8.20661 16.25 8.5V12.5C16.25 12.8315 16.3817 13.1495 16.6161 13.3839C16.8505 13.6183 17.1685 13.75 17.5 13.75H20.65L19.65 16.25Z" fill="white"/>
</svg>
