<svg width="30" height="30" viewBox="0 0 30 30" fill="none" xmlns="http://www.w3.org/2000/svg">
<path d="M12.5879 25.6287C12.5879 25.4454 12.5475 25.2643 12.4697 25.0983C12.3919 24.9323 12.2785 24.7855 12.1377 24.6682C11.9968 24.5509 11.8318 24.466 11.6545 24.4195C11.4771 24.3731 11.2917 24.3662 11.1115 24.3994C9.4751 24.6997 7.40906 24.7449 6.85974 23.2019C6.38075 22.0069 5.58733 20.9638 4.5636 20.1832C4.49056 20.1434 4.42094 20.0977 4.35547 20.0464C4.26588 19.8101 4.10674 19.6065 3.89905 19.4624C3.69137 19.3184 3.44489 19.2407 3.19214 19.2396H3.18604C2.85554 19.2394 2.53845 19.3703 2.30418 19.6034C2.06991 19.8365 1.93754 20.153 1.93604 20.4835C1.93115 21.5028 2.94979 22.1558 3.36304 22.3768C3.85034 22.8664 4.24198 23.4427 4.51782 24.076C4.97315 25.3553 6.29639 27.2962 10.1001 27.046C10.1013 27.0899 10.1025 27.1314 10.1031 27.1693L10.1086 27.5037C10.1086 27.8353 10.2403 28.1532 10.4748 28.3876C10.7092 28.6221 11.0271 28.7537 11.3586 28.7537C11.6902 28.7537 12.0081 28.6221 12.2425 28.3876C12.4769 28.1532 12.6086 27.8353 12.6086 27.5037L12.6025 27.1058C12.5964 26.8689 12.5879 26.5259 12.5879 25.6287ZM25.9216 6.72117C25.9613 6.56492 26.0004 6.39159 26.0346 6.19627C26.2367 4.80326 26.0605 3.38151 25.5243 2.08002C25.4566 1.91035 25.3527 1.75753 25.2197 1.63228C25.0868 1.50702 24.928 1.41236 24.7547 1.35494C24.3097 1.20479 22.6666 0.909373 19.5246 2.91744C16.9127 2.3028 14.1939 2.3028 11.5821 2.91744C8.45276 0.938785 6.81824 1.20729 6.37756 1.34889C6.19989 1.40399 6.0368 1.49814 5.90025 1.62446C5.76369 1.75077 5.65713 1.90604 5.58837 2.07889C5.04125 3.40536 4.86693 4.85611 5.08422 6.27444C5.11475 6.43435 5.1477 6.58206 5.18189 6.71755C4.14635 8.09685 3.59477 9.77925 3.61267 11.5039C3.6093 11.8887 3.62703 12.2734 3.66578 12.6563C4.08328 18.4094 7.83327 20.1367 10.4462 20.73C10.3918 20.8863 10.3424 21.0535 10.2985 21.2305C10.2201 21.5521 10.2726 21.8917 10.4442 22.1747C10.6159 22.4577 10.8928 22.6611 11.2142 22.7403C11.5356 22.8195 11.8753 22.768 12.1588 22.5971C12.4423 22.4262 12.6464 22.1498 12.7264 21.8286C12.806 21.4121 13.0098 21.0295 13.3112 20.7312C13.4934 20.5717 13.6253 20.3627 13.6909 20.1296C13.7564 19.8965 13.7529 19.6494 13.6806 19.4182C13.6083 19.1871 13.4704 18.982 13.2836 18.8278C13.0969 18.6737 12.8694 18.5771 12.6288 18.5498C8.31116 18.0567 6.43676 16.2976 6.15479 12.4268C6.12355 12.1202 6.10949 11.8121 6.11268 11.5039C6.09262 10.2748 6.49871 9.07653 7.26196 8.11282C7.33865 8.01235 7.42034 7.91579 7.50671 7.82351C7.65975 7.65226 7.76265 7.44216 7.8041 7.21627C7.84556 6.99038 7.82397 6.75743 7.74171 6.543C7.65738 6.31741 7.59245 6.08504 7.54762 5.84841C7.44579 5.17556 7.47919 4.48915 7.64587 3.82936C8.73229 4.1362 9.75477 4.63566 10.6646 5.30396C10.8151 5.40418 10.9853 5.47087 11.1638 5.49952C11.3423 5.52816 11.5249 5.51809 11.6992 5.46999C14.2256 4.78436 16.8891 4.78479 19.4152 5.47124C19.5904 5.51929 19.774 5.52878 19.9532 5.49907C20.1325 5.46936 20.3031 5.40114 20.4534 5.29912C21.359 4.62805 22.3772 4.12412 23.46 3.81109C23.626 4.45503 23.6631 5.12541 23.5693 5.78374C23.524 6.04316 23.4533 6.29748 23.3581 6.54302C23.2758 6.75745 23.2543 6.9904 23.2957 7.21629C23.3372 7.44219 23.4401 7.65229 23.5931 7.82354C23.6895 7.93217 23.786 8.04936 23.8726 8.15922C24.6305 9.10662 25.0297 10.2911 25 11.5039C25.0023 11.8284 24.9866 12.1528 24.953 12.4756C24.6777 16.2952 22.796 18.0554 18.4583 18.5498C18.2176 18.5772 17.99 18.674 17.8033 18.8283C17.6166 18.9826 17.4788 19.1879 17.4065 19.4191C17.3343 19.6503 17.3308 19.8975 17.3965 20.1307C17.4622 20.3639 17.5942 20.5729 17.7765 20.7324C18.0873 21.0387 18.2916 21.4366 18.3594 21.8677C18.4438 22.2023 18.4827 22.5468 18.4747 22.8919V25.8094C18.4625 26.6187 18.4625 27.2254 18.4625 27.5037C18.4625 27.8352 18.5942 28.1531 18.8286 28.3876C19.063 28.622 19.381 28.7537 19.7125 28.7537C20.044 28.7537 20.362 28.622 20.5964 28.3876C20.8308 28.1531 20.9625 27.8352 20.9625 27.5037C20.9625 27.2327 20.9625 26.6382 20.9747 25.8289V22.8919C20.9848 22.3391 20.9197 21.7876 20.7812 21.2525C20.7416 21.0768 20.6932 20.9032 20.636 20.7325C22.5375 20.4166 24.2653 19.4361 25.5117 17.9657C26.7582 16.4953 27.4424 14.6303 27.4426 12.7027C27.4838 12.3044 27.503 11.9043 27.5 11.5039C27.5277 9.77739 26.9716 8.09208 25.9216 6.7212L25.9216 6.72117Z" fill="white"/>
</svg>
