<svg width="30" height="30" viewBox="0 0 30 30" fill="none" xmlns="http://www.w3.org/2000/svg">
<path d="M15 8.75C13.7639 8.75 12.5555 9.11656 11.5277 9.80331C10.4999 10.4901 9.6988 11.4662 9.22575 12.6082C8.75271 13.7503 8.62893 15.0069 8.87009 16.2193C9.11125 17.4317 9.7065 18.5453 10.5806 19.4194C11.4547 20.2935 12.5683 20.8888 13.7807 21.1299C14.9931 21.3711 16.2497 21.2473 17.3918 20.7742C18.5338 20.3012 19.5099 19.5001 20.1967 18.4723C20.8834 17.4445 21.25 16.2361 21.25 15C21.25 13.3424 20.5915 11.7527 19.4194 10.5806C18.2473 9.40848 16.6576 8.75 15 8.75ZM15 18.75C14.2583 18.75 13.5333 18.5301 12.9166 18.118C12.2999 17.706 11.8193 17.1203 11.5355 16.4351C11.2516 15.7498 11.1774 14.9958 11.3221 14.2684C11.4667 13.541 11.8239 12.8728 12.3483 12.3483C12.8728 11.8239 13.541 11.4667 14.2684 11.3221C14.9958 11.1774 15.7498 11.2516 16.4351 11.5355C17.1203 11.8193 17.706 12.2999 18.118 12.9166C18.5301 13.5333 18.75 14.2583 18.75 15C18.75 15.9946 18.3549 16.9484 17.6517 17.6517C16.9484 18.3549 15.9946 18.75 15 18.75ZM21.25 7.5C21.0028 7.5 20.7611 7.57331 20.5555 7.71066C20.35 7.84801 20.1898 8.04324 20.0951 8.27165C20.0005 8.50005 19.9758 8.75139 20.024 8.99386C20.0723 9.23634 20.1913 9.45907 20.3661 9.63388C20.5409 9.8087 20.7637 9.92775 21.0061 9.97598C21.2486 10.0242 21.4999 9.99946 21.7284 9.90485C21.9568 9.81024 22.152 9.65002 22.2893 9.44446C22.4267 9.2389 22.5 8.99723 22.5 8.75C22.5 8.41848 22.3683 8.10054 22.1339 7.86612C21.8995 7.6317 21.5815 7.5 21.25 7.5ZM27.425 10.3C27.4043 9.23178 27.2014 8.17493 26.825 7.175C26.476 6.26508 25.9395 5.43874 25.2504 4.74962C24.5613 4.06051 23.7349 3.52402 22.825 3.175C21.8251 2.79862 20.7682 2.59571 19.7 2.575C18.4875 2.5 18.0875 2.5 15 2.5C11.9125 2.5 11.5125 2.5 10.3 2.575C9.23178 2.59571 8.17493 2.79862 7.175 3.175C6.26508 3.52402 5.43874 4.06051 4.74962 4.74962C4.06051 5.43874 3.52402 6.26508 3.175 7.175C2.79862 8.17493 2.59571 9.23178 2.575 10.3C2.5 11.525 2.5 11.925 2.5 15C2.5 18.075 2.5 18.475 2.575 19.7C2.59571 20.7682 2.79862 21.8251 3.175 22.825C3.52402 23.7349 4.06051 24.5613 4.74962 25.2504C5.43874 25.9395 6.26508 26.476 7.175 26.825C8.17493 27.2014 9.23178 27.4043 10.3 27.425C11.55 27.425 11.9125 27.5 15 27.5C18.0875 27.5 18.4875 27.5 19.7 27.425C20.7682 27.4043 21.8251 27.2014 22.825 26.825C23.7349 26.476 24.5613 25.9395 25.2504 25.2504C25.9395 24.5613 26.476 23.7349 26.825 22.825C27.2014 21.8251 27.4043 20.7682 27.425 19.7C27.425 18.45 27.5 18.075 27.5 15C27.5 11.925 27.5 11.525 27.425 10.3ZM24.925 19.5875C24.9031 20.3808 24.7554 21.1655 24.4875 21.9125C24.266 22.5029 23.9159 23.0367 23.4625 23.475C23.0268 23.9286 22.492 24.2751 21.9 24.4875C21.1513 24.7664 20.3613 24.9185 19.5625 24.9375C18.3875 24.9375 18.025 25 14.9875 25C11.95 25 11.6 25 10.425 25C9.62752 24.9794 8.83844 24.8317 8.0875 24.5625C7.49707 24.341 6.96334 23.9909 6.525 23.5375C6.07144 23.1018 5.7249 22.567 5.5125 21.975C5.23476 21.2303 5.08269 20.4446 5.0625 19.65C5.0625 18.4 5.0625 18.0875 5.0625 15.0625C5.0625 12.0375 5.0625 11.675 5.0625 10.475C5.08405 9.67651 5.23605 8.88692 5.5125 8.1375C5.7282 7.55079 6.07442 7.02078 6.525 6.5875C6.96072 6.13394 7.49551 5.7874 8.0875 5.575C8.83624 5.29612 9.62624 5.14403 10.425 5.125C11.6 5 11.9625 5 15 5C18.0375 5 18.4 5 19.575 5C20.3777 5.02041 21.1716 5.17243 21.925 5.45C22.5117 5.6657 23.0417 6.01192 23.475 6.4625C23.9286 6.89822 24.2751 7.43301 24.4875 8.025C24.7935 8.7857 24.9668 9.59323 25 10.4125C25 11.6625 25.0625 11.975 25.0625 15C25.0625 18.025 25 18.3875 25 19.5875H24.925Z" fill="white"/>
</svg>
