<svg width="30" height="30" viewBox="0 0 30 30" fill="none" xmlns="http://www.w3.org/2000/svg">
<path d="M21.875 11.2488C20.7559 11.2483 19.6542 11.5251 18.6682 12.0544C18.5782 11.8175 18.4183 11.6135 18.2096 11.4696C18.001 11.3257 17.7535 11.2486 17.5 11.2488H12.5C12.3358 11.2487 12.1732 11.2809 12.0215 11.3437C11.8698 11.4065 11.732 11.4986 11.6159 11.6147C11.4998 11.7308 11.4077 11.8686 11.345 12.0203C11.2822 12.172 11.2499 12.3346 11.25 12.4988V27.4988C11.2499 27.6629 11.2822 27.8255 11.345 27.9772C11.4077 28.1289 11.4998 28.2668 11.6159 28.3829C11.732 28.4989 11.8698 28.591 12.0215 28.6538C12.1732 28.7166 12.3358 28.7489 12.5 28.7488H17.5C17.6642 28.7489 17.8268 28.7166 17.9785 28.6538C18.1302 28.591 18.268 28.4989 18.3841 28.3829C18.5002 28.2668 18.5923 28.1289 18.655 27.9772C18.7178 27.8255 18.7501 27.6629 18.75 27.4988V20.6238C18.75 20.2922 18.8817 19.9743 19.1161 19.7399C19.3505 19.5055 19.6685 19.3738 20 19.3738C20.3315 19.3738 20.6495 19.5055 20.8839 19.7399C21.1183 19.9743 21.25 20.2922 21.25 20.6238V27.4988C21.2499 27.6629 21.2822 27.8255 21.345 27.9772C21.4077 28.1289 21.4998 28.2668 21.6159 28.3829C21.732 28.4989 21.8698 28.591 22.0215 28.6538C22.1732 28.7166 22.3358 28.7489 22.5 28.7488H27.5C27.6642 28.7489 27.8268 28.7166 27.9785 28.6538C28.1302 28.591 28.268 28.4989 28.3841 28.3829C28.5002 28.2668 28.5923 28.1289 28.655 27.9772C28.7178 27.8255 28.7501 27.6629 28.75 27.4988V18.1238C28.7477 16.3011 28.0227 14.5537 26.7339 13.2649C25.445 11.9761 23.6977 11.251 21.875 11.2488ZM26.25 26.2488H23.75V20.6238C23.75 19.6292 23.3549 18.6754 22.6516 17.9721C21.9484 17.2688 20.9946 16.8738 20 16.8738C19.0054 16.8738 18.0516 17.2688 17.3483 17.9721C16.6451 18.6754 16.25 19.6292 16.25 20.6238V26.2488H13.75V13.7488H16.25V14.6277C16.2501 14.8867 16.3307 15.1392 16.4806 15.3505C16.6304 15.5617 16.8421 15.7213 17.0865 15.807C17.3309 15.8928 17.5959 15.9005 17.8449 15.8292C18.0939 15.7579 18.3146 15.611 18.4766 15.4089C19.0375 14.6965 19.807 14.177 20.6775 13.923C21.548 13.669 22.4761 13.6932 23.3322 13.9921C24.1882 14.2911 24.9296 14.85 25.4527 15.5907C25.9758 16.3314 26.2545 17.217 26.25 18.1238V26.2488ZM8.74999 11.2488H3.74999C3.58582 11.2487 3.42323 11.2809 3.27153 11.3437C3.11983 11.4065 2.98199 11.4986 2.8659 11.6147C2.74981 11.7308 2.65774 11.8686 2.59495 12.0203C2.53217 12.172 2.4999 12.3346 2.49999 12.4988V27.4988C2.4999 27.6629 2.53217 27.8255 2.59495 27.9772C2.65774 28.1289 2.74981 28.2668 2.8659 28.3829C2.98199 28.4989 3.11983 28.591 3.27153 28.6538C3.42323 28.7166 3.58581 28.7489 3.74999 28.7488H8.74999C8.91417 28.7489 9.07676 28.7166 9.22846 28.6538C9.38016 28.591 9.518 28.4989 9.63409 28.3829C9.75018 28.2668 9.84225 28.1289 9.90504 27.9772C9.96782 27.8255 10.0001 27.6629 9.99999 27.4988V12.4988C10.0001 12.3346 9.96782 12.172 9.90503 12.0203C9.84225 11.8686 9.75018 11.7308 9.63409 11.6147C9.51799 11.4986 9.38016 11.4065 9.22846 11.3437C9.07676 11.2809 8.91417 11.2487 8.74999 11.2488ZM7.49999 26.2488H4.99999V13.7488H7.49999V26.2488ZM6.26831 1.92751C5.72126 1.89476 5.17326 1.97363 4.65765 2.15931C4.14204 2.345 3.66958 2.63362 3.26902 3.00762C2.86845 3.38163 2.54814 3.8332 2.32757 4.33488C2.107 4.83656 1.99077 5.37787 1.98596 5.92587C1.98116 6.47388 2.08787 7.01714 2.2996 7.52261C2.51133 8.02809 2.82367 8.48521 3.21762 8.86619C3.61156 9.24716 4.07888 9.54403 4.59115 9.73873C5.10343 9.93343 5.64996 10.0219 6.19749 9.99876H6.23289C6.78139 10.0313 7.33077 9.95174 7.84746 9.76482C8.36416 9.57791 8.83731 9.2876 9.23802 8.91164C9.63873 8.53569 9.95857 8.08198 10.178 7.57823C10.3974 7.07449 10.5119 6.53129 10.5143 5.98183C10.5167 5.43238 10.407 4.8882 10.192 4.38255C9.97701 3.8769 9.66116 3.4204 9.26377 3.04094C8.86637 2.66148 8.39578 2.36704 7.88075 2.1756C7.36572 1.98416 6.81705 1.89974 6.26829 1.92751H6.26831ZM6.23291 7.49876H6.19749C5.98133 7.52501 5.76205 7.50473 5.55436 7.43929C5.34667 7.37386 5.15537 7.26477 4.9933 7.11934C4.83122 6.97391 4.70212 6.79551 4.61464 6.5961C4.52716 6.39669 4.48332 6.18088 4.48608 5.96315C4.48608 5.03052 5.18554 4.4275 6.26831 4.4275C6.48668 4.39839 6.70876 4.41641 6.91958 4.48035C7.1304 4.54429 7.32507 4.65267 7.49048 4.79819C7.65588 4.9437 7.78819 5.12297 7.87848 5.32392C7.96877 5.52488 8.01495 5.74284 8.01391 5.96315C8.01391 6.89576 7.31444 7.49876 6.23291 7.49876Z" fill="white"/>
</svg>
